<mxfile host="app.diagrams.net" modified="2024-02-29T01:41:20.735Z" agent="Mozilla/5.0 (Windows NT 10.0; Win64; x64) AppleWebKit/537.36 (KHTML, like Gecko) Chrome/121.0.0.0 Safari/537.36 Edg/121.0.0.0" etag="hkhCCnkpAY_y53-3MWXv" version="23.1.6" type="google">
  <diagram name="Page-1" id="fxVBj99mZtEhVqRGkAvh">
    <mxGraphModel grid="0" page="1" gridSize="10" guides="1" tooltips="1" connect="1" arrows="1" fold="1" pageScale="1" pageWidth="827" pageHeight="1169" math="0" shadow="0">
      <root>
        <mxCell id="0" />
        <mxCell id="1" parent="0" />
        <mxCell id="hUUVeqr-bLwa1-exPnqf-1" style="edgeStyle=orthogonalEdgeStyle;rounded=0;orthogonalLoop=1;jettySize=auto;html=1;exitX=0;exitY=0.5;exitDx=0;exitDy=0;startArrow=classic;startFill=1;endArrow=none;endFill=0;" edge="1" parent="1" source="hUUVeqr-bLwa1-exPnqf-5">
          <mxGeometry relative="1" as="geometry">
            <mxPoint x="240" y="115" as="targetPoint" />
          </mxGeometry>
        </mxCell>
        <mxCell id="hUUVeqr-bLwa1-exPnqf-2" value="V&lt;sub&gt;ALIM&lt;/sub&gt;" style="edgeLabel;html=1;align=center;verticalAlign=middle;resizable=0;points=[];" connectable="0" vertex="1" parent="hUUVeqr-bLwa1-exPnqf-1">
          <mxGeometry x="-0.1255" relative="1" as="geometry">
            <mxPoint as="offset" />
          </mxGeometry>
        </mxCell>
        <mxCell id="hUUVeqr-bLwa1-exPnqf-3" style="edgeStyle=orthogonalEdgeStyle;rounded=0;orthogonalLoop=1;jettySize=auto;html=1;exitX=1;exitY=0.5;exitDx=0;exitDy=0;entryX=0.5;entryY=0;entryDx=0;entryDy=0;" edge="1" parent="1" source="hUUVeqr-bLwa1-exPnqf-5" target="hUUVeqr-bLwa1-exPnqf-17">
          <mxGeometry relative="1" as="geometry" />
        </mxCell>
        <mxCell id="hUUVeqr-bLwa1-exPnqf-4" value="VCC" style="edgeLabel;html=1;align=center;verticalAlign=middle;resizable=0;points=[];" connectable="0" vertex="1" parent="hUUVeqr-bLwa1-exPnqf-3">
          <mxGeometry x="-0.4152" y="-1" relative="1" as="geometry">
            <mxPoint as="offset" />
          </mxGeometry>
        </mxCell>
        <mxCell id="zqBD53lxlLq_6690P9F3-5" style="edgeStyle=orthogonalEdgeStyle;rounded=0;orthogonalLoop=1;jettySize=auto;html=1;exitX=0.25;exitY=1;exitDx=0;exitDy=0;entryX=0.5;entryY=0;entryDx=0;entryDy=0;" edge="1" parent="1" source="hUUVeqr-bLwa1-exPnqf-5" target="W-U6Rb9CjSJ4Xr0o2ebl-1">
          <mxGeometry relative="1" as="geometry" />
        </mxCell>
        <mxCell id="zqBD53lxlLq_6690P9F3-6" value="V&lt;sub&gt;moteurs&lt;br&gt;&lt;/sub&gt;" style="edgeLabel;html=1;align=center;verticalAlign=middle;resizable=0;points=[];" connectable="0" vertex="1" parent="zqBD53lxlLq_6690P9F3-5">
          <mxGeometry x="0.0226" y="3" relative="1" as="geometry">
            <mxPoint as="offset" />
          </mxGeometry>
        </mxCell>
        <mxCell id="hUUVeqr-bLwa1-exPnqf-5" value="ALIMENTATION" style="rounded=0;whiteSpace=wrap;html=1;" vertex="1" parent="1">
          <mxGeometry x="320" y="70" width="160" height="90" as="geometry" />
        </mxCell>
        <mxCell id="hUUVeqr-bLwa1-exPnqf-6" value="FP2" style="rounded=0;whiteSpace=wrap;html=1;" vertex="1" parent="1">
          <mxGeometry x="320" y="140" width="40" height="20" as="geometry" />
        </mxCell>
        <mxCell id="hUUVeqr-bLwa1-exPnqf-7" style="edgeStyle=orthogonalEdgeStyle;rounded=0;orthogonalLoop=1;jettySize=auto;html=1;exitX=0;exitY=0.25;exitDx=0;exitDy=0;entryX=1;entryY=0.25;entryDx=0;entryDy=0;startArrow=classic;startFill=1;" edge="1" parent="1">
          <mxGeometry relative="1" as="geometry">
            <mxPoint x="320" y="314.5" as="sourcePoint" />
            <mxPoint x="200" y="314.5" as="targetPoint" />
          </mxGeometry>
        </mxCell>
        <mxCell id="hUUVeqr-bLwa1-exPnqf-8" value="S&lt;font size=&quot;1&quot;&gt;moteurs&lt;/font&gt;" style="edgeLabel;html=1;align=center;verticalAlign=middle;resizable=0;points=[];" connectable="0" vertex="1" parent="hUUVeqr-bLwa1-exPnqf-7">
          <mxGeometry x="0.0367" y="3" relative="1" as="geometry">
            <mxPoint y="-3" as="offset" />
          </mxGeometry>
        </mxCell>
        <mxCell id="hUUVeqr-bLwa1-exPnqf-11" style="edgeStyle=orthogonalEdgeStyle;rounded=0;orthogonalLoop=1;jettySize=auto;html=1;exitX=1;exitY=0.25;exitDx=0;exitDy=0;entryX=0;entryY=0.25;entryDx=0;entryDy=0;" edge="1" parent="1">
          <mxGeometry relative="1" as="geometry">
            <mxPoint x="480" y="314.8" as="sourcePoint" />
            <mxPoint x="600" y="314.8" as="targetPoint" />
          </mxGeometry>
        </mxCell>
        <mxCell id="hUUVeqr-bLwa1-exPnqf-12" value="S&lt;font size=&quot;1&quot;&gt;IHM&lt;/font&gt;" style="edgeLabel;html=1;align=center;verticalAlign=middle;resizable=0;points=[];" connectable="0" vertex="1" parent="hUUVeqr-bLwa1-exPnqf-11">
          <mxGeometry x="-0.1533" y="4" relative="1" as="geometry">
            <mxPoint x="9" y="4" as="offset" />
          </mxGeometry>
        </mxCell>
        <mxCell id="hUUVeqr-bLwa1-exPnqf-13" style="edgeStyle=orthogonalEdgeStyle;rounded=0;orthogonalLoop=1;jettySize=auto;html=1;exitX=0.25;exitY=1;exitDx=0;exitDy=0;entryX=0.25;entryY=0;entryDx=0;entryDy=0;startArrow=classic;startFill=1;endArrow=none;endFill=0;" edge="1" parent="1">
          <mxGeometry relative="1" as="geometry">
            <mxPoint x="399.65999999999997" y="360" as="sourcePoint" />
            <mxPoint x="399.65999999999997" y="470" as="targetPoint" />
          </mxGeometry>
        </mxCell>
        <mxCell id="hUUVeqr-bLwa1-exPnqf-14" value="S&lt;sub&gt;CAPTEUR&lt;br&gt;&lt;/sub&gt;" style="edgeLabel;html=1;align=center;verticalAlign=middle;resizable=0;points=[];" connectable="0" vertex="1" parent="hUUVeqr-bLwa1-exPnqf-13">
          <mxGeometry x="-0.0212" y="2" relative="1" as="geometry">
            <mxPoint as="offset" />
          </mxGeometry>
        </mxCell>
        <mxCell id="96NPJTHF2mATPprwORtL-2" style="edgeStyle=orthogonalEdgeStyle;rounded=0;orthogonalLoop=1;jettySize=auto;html=1;exitX=0.75;exitY=1;exitDx=0;exitDy=0;" edge="1" parent="1" source="hUUVeqr-bLwa1-exPnqf-15">
          <mxGeometry relative="1" as="geometry">
            <mxPoint x="719" y="500" as="targetPoint" />
            <Array as="points">
              <mxPoint x="440" y="430" />
              <mxPoint x="614" y="430" />
              <mxPoint x="614" y="500" />
            </Array>
          </mxGeometry>
        </mxCell>
        <mxCell id="96NPJTHF2mATPprwORtL-4" value="Scom" style="edgeLabel;html=1;align=center;verticalAlign=middle;resizable=0;points=[];" connectable="0" vertex="1" parent="96NPJTHF2mATPprwORtL-2">
          <mxGeometry x="0.7509" y="1" relative="1" as="geometry">
            <mxPoint as="offset" />
          </mxGeometry>
        </mxCell>
        <mxCell id="hUUVeqr-bLwa1-exPnqf-15" value="TRAITEMENT" style="rounded=0;whiteSpace=wrap;html=1;" vertex="1" parent="1">
          <mxGeometry x="320" y="270" width="160" height="90" as="geometry" />
        </mxCell>
        <mxCell id="hUUVeqr-bLwa1-exPnqf-16" value="FP1" style="rounded=0;whiteSpace=wrap;html=1;" vertex="1" parent="1">
          <mxGeometry x="320" y="340" width="40" height="20" as="geometry" />
        </mxCell>
        <mxCell id="hUUVeqr-bLwa1-exPnqf-17" value="IHM" style="rounded=0;whiteSpace=wrap;html=1;" vertex="1" parent="1">
          <mxGeometry x="600" y="270" width="160" height="90" as="geometry" />
        </mxCell>
        <mxCell id="hUUVeqr-bLwa1-exPnqf-18" value="FP3" style="rounded=0;whiteSpace=wrap;html=1;" vertex="1" parent="1">
          <mxGeometry x="600" y="340" width="40" height="20" as="geometry" />
        </mxCell>
        <mxCell id="hUUVeqr-bLwa1-exPnqf-19" value="CAPTEUR" style="rounded=0;whiteSpace=wrap;html=1;" vertex="1" parent="1">
          <mxGeometry x="320" y="470" width="160" height="90" as="geometry" />
        </mxCell>
        <mxCell id="hUUVeqr-bLwa1-exPnqf-20" value="FP4" style="rounded=0;whiteSpace=wrap;html=1;" vertex="1" parent="1">
          <mxGeometry x="320" y="540" width="40" height="20" as="geometry" />
        </mxCell>
        <mxCell id="hUUVeqr-bLwa1-exPnqf-21" value="" style="endArrow=classic;html=1;rounded=0;entryX=0.25;entryY=0;entryDx=0;entryDy=0;exitX=1;exitY=1;exitDx=0;exitDy=0;" edge="1" parent="1">
          <mxGeometry width="50" height="50" relative="1" as="geometry">
            <mxPoint x="399.76" y="160" as="sourcePoint" />
            <mxPoint x="399.76" y="270" as="targetPoint" />
          </mxGeometry>
        </mxCell>
        <mxCell id="hUUVeqr-bLwa1-exPnqf-22" value="VDD" style="edgeLabel;html=1;align=center;verticalAlign=middle;resizable=0;points=[];" connectable="0" vertex="1" parent="hUUVeqr-bLwa1-exPnqf-21">
          <mxGeometry x="-0.0836" relative="1" as="geometry">
            <mxPoint as="offset" />
          </mxGeometry>
        </mxCell>
        <mxCell id="W-U6Rb9CjSJ4Xr0o2ebl-1" value="Moteurs" style="rounded=0;whiteSpace=wrap;html=1;" vertex="1" parent="1">
          <mxGeometry x="40" y="270" width="160" height="90" as="geometry" />
        </mxCell>
        <mxCell id="W-U6Rb9CjSJ4Xr0o2ebl-2" value="FP5" style="rounded=0;whiteSpace=wrap;html=1;" vertex="1" parent="1">
          <mxGeometry x="40" y="340" width="40" height="20" as="geometry" />
        </mxCell>
      </root>
    </mxGraphModel>
  </diagram>
</mxfile>
